<svg width="70" height="70" viewBox="0 0 70 70" fill="none" xmlns="http://www.w3.org/2000/svg">
  <path d="M0 8.75C0 6.42936 0.921873 4.20376 2.56282 2.56282C4.20376 0.921873 6.42936 0 8.75 0L39.375 0C41.6956 0 43.9212 0.921873 45.5622 2.56282C47.2031 4.20376 48.125 6.42936 48.125 8.75V21.875H61.25C63.5706 21.875 65.7962 22.7969 67.4372 24.4378C69.0781 26.0788 70 28.3044 70 30.625V61.25C70 63.5706 69.0781 65.7962 67.4372 67.4372C65.7962 69.0781 63.5706 70 61.25 70H30.625C28.3044 70 26.0788 69.0781 24.4378 67.4372C22.7969 65.7962 21.875 63.5706 21.875 61.25V48.125H8.75C6.42936 48.125 4.20376 47.2031 2.56282 45.5622C0.921873 43.9212 0 41.6956 0 39.375V8.75ZM8.75 4.375C7.58968 4.375 6.47688 4.83594 5.65641 5.65641C4.83594 6.47688 4.375 7.58968 4.375 8.75V39.375C4.375 40.5353 4.83594 41.6481 5.65641 42.4686C6.47688 43.2891 7.58968 43.75 8.75 43.75H39.375C40.5353 43.75 41.6481 43.2891 42.4686 42.4686C43.2891 41.6481 43.75 40.5353 43.75 39.375V8.75C43.75 7.58968 43.2891 6.47688 42.4686 5.65641C41.6481 4.83594 40.5353 4.375 39.375 4.375H8.75ZM39.9787 48.1031C40.8231 49.42 41.7375 50.6537 42.735 51.8044C39.4625 54.32 35.4156 56.1838 30.625 57.4569C31.4038 58.4063 32.5981 60.235 33.0531 61.25C37.975 59.6794 42.1531 57.5575 45.6794 54.7137C49.0787 57.6231 53.2875 59.8106 58.4981 61.1537C59.08 60.0425 60.3094 58.2094 61.25 57.26C56.3281 56.1531 52.2506 54.2237 48.9125 51.6425C51.8919 48.3744 54.2587 44.4194 56.0044 39.5806H61.25V35H48.125V39.5806H51.4719C50.0806 43.2731 48.2344 46.3444 45.9069 48.8994C45.264 48.2145 44.6579 47.496 44.0913 46.7469C42.8567 47.5384 41.442 48.005 39.9787 48.1031Z" fill="black"/>
  <path d="M32.912 11H37.3572L27.5971 22.0332L39 37H30.0516L23.0457 27.9048L15.025 37H10.5798L20.9197 25.1993L10 11H19.1706L25.5002 19.3085L32.912 11ZM31.3562 34.4096H33.8204L17.8757 13.4945H15.2279L31.3562 34.4096Z" fill="black"/>
</svg>
